<svg width="250" height="250" viewBox="0 0 250 250" fill="none" xmlns="http://www.w3.org/2000/svg">
<g clip-path="url(#clip0_64_181)">
<path d="M179.558 119.684L202.153 140.822C202.611 141.251 202.611 141.979 202.153 142.407L179.558 163.546C179.145 163.932 178.504 163.936 178.086 163.555L154.881 142.417C154.408 141.987 154.408 141.243 154.881 140.813L178.086 119.675C178.504 119.294 179.145 119.298 179.558 119.684Z" fill="black" stroke="black" stroke-width="1.0852" stroke-linejoin="round"/>
<path d="M213.558 154.684L236.153 175.822C236.611 176.251 236.611 176.979 236.153 177.407L213.558 198.546C213.145 198.932 212.504 198.936 212.086 198.555L188.881 177.417C188.408 176.987 188.408 176.243 188.881 175.813L212.086 154.675C212.504 154.294 213.145 154.298 213.558 154.684Z" fill="black" stroke="black" stroke-width="1.0852" stroke-linejoin="round"/>
<path d="M146.558 154.684L169.153 175.822C169.611 176.251 169.611 176.979 169.153 177.407L146.558 198.546C146.145 198.932 145.504 198.936 145.086 198.555L121.881 177.417C121.408 176.987 121.408 176.243 121.881 175.813L145.086 154.675C145.504 154.294 146.145 154.298 146.558 154.684Z" fill="black" stroke="black" stroke-width="1.0852" stroke-linejoin="round"/>
<path d="M178.506 96.1879L42.3461 216.574C40.3743 218.318 37.5821 215.706 39.1905 213.622L113.252 117.681C114.072 116.618 113.741 115.073 112.557 114.44L92.3627 103.644C90.4733 102.634 91.0346 99.7879 93.1659 99.5707L129.212 95.8979C129.804 95.8375 130.346 95.5363 130.71 95.0649L149.434 70.8091C150.389 69.5723 149.763 67.7623 148.249 67.3788L90.4679 52.7521C88.2601 52.1932 88.2937 49.0449 90.5129 48.5332L223.118 17.957C224.476 17.6437 225.774 18.6744 225.776 20.0687L225.941 132.868C225.943 134.768 223.675 135.754 222.287 134.456L181.426 96.2289C180.609 95.4644 179.344 95.4466 178.506 96.1879Z" fill="black" stroke="black" stroke-width="1.0852" stroke-linejoin="round"/>
</g>
<defs>
<clipPath id="clip0_64_181">
<rect width="250" height="250" fill="white"/>
</clipPath>
</defs>
</svg>
