<svg width="250" height="250" viewBox="0 0 250 250" fill="none" xmlns="http://www.w3.org/2000/svg">
<g clip-path="url(#clip0_63_169)">
<path d="M180.705 115.429L212.082 144.783C212.302 144.988 212.426 145.275 212.426 145.576V159.967C212.426 160.916 211.293 161.408 210.6 160.759L180.705 132.792C180.296 132.41 179.664 132.401 179.245 132.772L147.462 160.873C146.762 161.492 145.658 160.995 145.658 160.06V145.594C145.658 145.283 145.791 144.987 146.024 144.781L179.245 115.409C179.664 115.038 180.296 115.047 180.705 115.429Z" fill="black"/>
<path d="M180.705 146.9L212.082 176.254C212.302 176.459 212.426 176.746 212.426 177.046V215.415C212.426 216.014 211.94 216.5 211.341 216.5H146.743C146.144 216.5 145.658 216.014 145.658 215.415V177.065C145.658 176.754 145.791 176.458 146.024 176.252L179.245 146.879C179.664 146.509 180.296 146.518 180.705 146.9Z" fill="black"/>
<path d="M180.705 115.429L212.082 144.783C212.302 144.988 212.426 145.275 212.426 145.576V159.967C212.426 160.916 211.293 161.408 210.6 160.759L180.705 132.792C180.296 132.41 179.664 132.401 179.245 132.772L147.462 160.873C146.762 161.492 145.658 160.995 145.658 160.06V145.594C145.658 145.283 145.791 144.987 146.024 144.781L179.245 115.409C179.664 115.038 180.296 115.047 180.705 115.429Z" stroke="black" stroke-width="1.0852" stroke-linejoin="round"/>
<path d="M180.705 146.9L212.082 176.254C212.302 176.459 212.426 176.746 212.426 177.046V215.415C212.426 216.014 211.94 216.5 211.341 216.5H146.743C146.144 216.5 145.658 216.014 145.658 215.415V177.065C145.658 176.754 145.791 176.458 146.024 176.252L179.245 146.879C179.664 146.509 180.296 146.518 180.705 146.9Z" stroke="black" stroke-width="1.0852" stroke-linejoin="round"/>
<path d="M178.506 96.1879L42.3461 216.574C40.3743 218.318 37.5821 215.706 39.1905 213.622L113.252 117.681C114.072 116.618 113.741 115.073 112.557 114.44L92.3627 103.644C90.4733 102.634 91.0346 99.7879 93.1659 99.5707L129.212 95.8979C129.804 95.8375 130.346 95.5363 130.71 95.0649L149.434 70.8091C150.389 69.5723 149.763 67.7623 148.249 67.3788L90.4679 52.7521C88.2601 52.1932 88.2937 49.0449 90.5129 48.5332L223.118 17.957C224.476 17.6437 225.774 18.6744 225.776 20.0687L225.941 132.868C225.943 134.768 223.675 135.754 222.287 134.456L181.426 96.2289C180.609 95.4644 179.344 95.4466 178.506 96.1879Z" fill="black" stroke="black" stroke-width="1.0852" stroke-linejoin="round"/>
</g>
<defs>
<clipPath id="clip0_63_169">
<rect width="250" height="250" fill="white"/>
</clipPath>
</defs>
</svg>
