<svg width="250" height="250" viewBox="0 0 250 250" fill="none" xmlns="http://www.w3.org/2000/svg">
<path d="M222 167.729V19H93.5739L101.128 38.3584H206.419V157.814L124.264 209.278V230.053L222 167.729Z" fill="black"/>
<path d="M123.32 209.278V230.053L89.7966 209.278L101.128 194.642L123.32 209.278Z" fill="black"/>
<path d="M63.3559 190.864L27 167.729V83.2131L43.0533 90.2954V157.814L74.6877 178.116L63.3559 190.864Z" fill="black"/>
<path d="M222 19V167.729L124.264 230.053V209.278L206.419 157.814V38.3584H101.128L93.5739 19H222ZM27 167.729L63.3559 190.864L74.6877 178.116L43.0533 157.814V90.2954L27 83.2131V167.729ZM123.32 230.053V209.278L101.128 194.642L89.7966 209.278L123.32 230.053Z" stroke="black" stroke-width="0.94431"/>
<path fill-rule="evenodd" clip-rule="evenodd" d="M85.5472 196.058L152.593 152.148V123.818L133.312 106.728L111.033 128.586L121.431 139.4L85.5472 196.058ZM109.878 127.385L109.627 127.124L104.906 130.901L31.2494 56.7724V24.1937H69.0218L135.596 90.2954L131.818 105.404L132.062 105.62L109.878 127.385Z" fill="black"/>
</svg>
