<svg width="250" height="250" viewBox="0 0 250 250" fill="none" xmlns="http://www.w3.org/2000/svg">
<path d="M222.951 167.691V19H143.649L151.201 38.3535H207.373V157.779L125.239 209.23V230L222.951 167.691Z" fill="black"/>
<path d="M124.295 209.23V230L90.7808 209.23L102.11 194.597L124.295 209.23Z" fill="black"/>
<path d="M64.3468 190.821L28 167.691V125.444L44.0492 132.525V157.779L75.6756 178.076L64.3468 190.821Z" fill="black"/>
<path d="M153.562 152.114L86.5325 196.013L122.407 139.369L102.11 114.351L83.7003 134.177L77.5638 114.351L69.5392 117.655L54.9061 146.922L31.7764 19L161.114 43.0738L141.761 54.8747L161.114 75.6443L143.649 79.8926L131.848 94.9978L153.562 123.792V152.114Z" fill="black"/>
<path d="M222.951 167.691V19H143.649L151.201 38.3535H207.373V157.779L125.239 209.23V230L222.951 167.691Z" stroke="black" stroke-width="0.944072"/>
<path d="M124.295 209.23V230L90.7808 209.23L102.11 194.597L124.295 209.23Z" stroke="black" stroke-width="0.944072"/>
<path d="M64.3468 190.821L28 167.691V125.444L44.0492 132.525V157.779L75.6756 178.076L64.3468 190.821Z" stroke="black" stroke-width="0.944072"/>
<path d="M153.562 152.114L86.5325 196.013L122.407 139.369L102.11 114.351L83.7003 134.177L77.5638 114.351L69.5392 117.655L54.9061 146.922L31.7764 19L161.114 43.0738L141.761 54.8747L161.114 75.6443L143.649 79.8926L131.848 94.9978L153.562 123.792V152.114Z" stroke="black" stroke-width="0.944072"/>
</svg>
