<svg width="250" height="250" viewBox="0 0 250 250" fill="none" xmlns="http://www.w3.org/2000/svg">
<path fill-rule="evenodd" clip-rule="evenodd" d="M160.041 25.4392C150.835 27.4405 141.509 33.6185 134.768 43.1353C122.667 60.2197 123.482 81.5948 136.588 90.8777C149.694 100.161 170.128 93.8363 182.229 76.7518C188.581 67.783 191.375 57.6318 190.699 48.6683L191.69 48.4194C191.809 48.3895 191.925 48.35 192.035 48.3017C200.613 63.989 200.11 83.8496 189.08 99.4223C173.663 121.187 143.522 126.334 121.757 110.918C99.9916 95.5015 94.8449 65.3599 110.261 43.5948C122.009 27.0083 142.309 20.0729 160.937 24.5342C160.561 24.7397 160.245 25.0522 160.041 25.4392Z" fill="black"/>
<path fill-rule="evenodd" clip-rule="evenodd" d="M38.3186 202.289L107.921 104.023C111.056 108.585 115.035 112.682 119.815 116.068C126.073 120.501 133.024 123.233 140.118 124.36L69.3515 224.269C67.4875 226.901 63.8431 227.523 61.2115 225.659L39.7085 210.429C37.0769 208.565 36.4546 204.92 38.3186 202.289ZM62.3045 211.372C68.4318 211.372 73.3989 206.405 73.3989 200.277C73.3989 194.15 68.4318 189.183 62.3045 189.183C56.1772 189.183 51.21 194.15 51.21 200.277C51.21 206.405 56.1772 211.372 62.3045 211.372Z" fill="black"/>
<path d="M107.921 104.023L109.304 103.073C108.993 102.62 108.481 102.349 107.932 102.345C107.384 102.341 106.868 102.605 106.551 103.053L107.921 104.023ZM38.3186 202.289L39.6882 203.259L38.3186 202.289ZM140.118 124.36L141.488 125.33C141.823 124.856 141.89 124.243 141.665 123.708C141.44 123.174 140.954 122.793 140.381 122.702L140.118 124.36ZM61.2115 225.659L60.2414 227.029L61.2115 225.659ZM39.7085 210.429L40.6786 209.059L39.7085 210.429ZM73.3989 200.277L75.0773 200.277L75.0773 200.277L73.3989 200.277ZM62.3045 211.372L62.3045 209.694L62.3045 209.694L62.3045 211.372ZM62.3045 189.183L62.3045 187.505L62.3045 187.505L62.3045 189.183ZM51.21 200.277L52.8884 200.277L52.8884 200.277L51.21 200.277ZM106.551 103.053L36.949 201.319L39.6882 203.259L109.29 104.993L106.551 103.053ZM120.786 114.698C116.169 111.428 112.329 107.474 109.304 103.073L106.537 104.974C109.783 109.696 113.901 113.936 118.845 117.438L120.786 114.698ZM140.381 122.702C133.536 121.615 126.829 118.979 120.786 114.698L118.845 117.438C125.318 122.023 132.512 124.851 139.855 126.017L140.381 122.702ZM70.7211 225.24L141.488 125.33L138.748 123.39L67.9819 223.299L70.7211 225.24ZM60.2414 227.029C63.6294 229.429 68.3214 228.628 70.7211 225.24L67.9819 223.299C66.6537 225.175 64.0568 225.618 62.1816 224.29L60.2414 227.029ZM38.7384 211.798L60.2414 227.029L62.1816 224.29L40.6786 209.059L38.7384 211.798ZM36.949 201.319C34.5492 204.707 35.3504 209.399 38.7384 211.798L40.6786 209.059C38.8034 207.731 38.36 205.134 39.6882 203.259L36.949 201.319ZM71.7206 200.277C71.7206 205.478 67.5048 209.694 62.3045 209.694L62.3045 213.05C69.3587 213.05 75.0773 207.332 75.0773 200.277L71.7206 200.277ZM62.3045 190.861C67.5048 190.861 71.7206 195.077 71.7206 200.277L75.0773 200.277C75.0773 193.223 69.3587 187.505 62.3045 187.505L62.3045 190.861ZM52.8884 200.277C52.8884 195.077 57.1041 190.861 62.3045 190.861L62.3045 187.505C55.2502 187.505 49.5316 193.223 49.5316 200.277L52.8884 200.277ZM62.3045 209.694C57.1041 209.694 52.8884 205.478 52.8884 200.277L49.5316 200.277C49.5316 207.332 55.2502 213.05 62.3045 213.05L62.3045 209.694Z" fill="black"/>
<path d="M143.469 187.605V142.469L181.661 187.605L143.469 232.74V187.605Z" fill="black" stroke="black" stroke-width="1.73598"/>
<path fill-rule="evenodd" clip-rule="evenodd" d="M169.509 210.172V232.74L207.701 187.605L169.509 142.469V165.037L188.605 187.605L169.509 210.172Z" fill="black"/>
<path d="M169.509 232.74H168.641V235.11L170.172 233.301L169.509 232.74ZM169.509 210.172L168.846 209.612L168.641 209.854V210.172H169.509ZM207.701 187.605L208.363 188.165L208.838 187.605L208.363 187.044L207.701 187.605ZM169.509 142.469L170.172 141.909L168.641 140.1V142.469H169.509ZM169.509 165.037H168.641V165.355L168.846 165.598L169.509 165.037ZM188.605 187.605L189.267 188.165L189.742 187.605L189.267 187.044L188.605 187.605ZM170.377 232.74V210.172H168.641V232.74H170.377ZM207.038 187.044L168.846 232.179L170.172 233.301L208.363 188.165L207.038 187.044ZM168.846 143.03L207.038 188.165L208.363 187.044L170.172 141.909L168.846 143.03ZM170.377 165.037V142.469H168.641V165.037H170.377ZM168.846 165.598L187.942 188.165L189.267 187.044L170.172 164.476L168.846 165.598ZM187.942 187.044L168.846 209.612L170.172 210.733L189.267 188.165L187.942 187.044Z" fill="black"/>
</svg>
