<svg width="250" height="250" viewBox="0 0 250 250" fill="none" xmlns="http://www.w3.org/2000/svg">
<g clip-path="url(#clip0_64_192)">
<path d="M178.506 96.1879L42.3461 216.574C40.3743 218.318 37.5821 215.706 39.1905 213.622L113.252 117.681C114.072 116.618 113.741 115.073 112.557 114.44L92.3627 103.644C90.4733 102.634 91.0346 99.7879 93.1659 99.5707L129.212 95.8979C129.804 95.8375 130.346 95.5363 130.71 95.0649L149.434 70.8091C150.389 69.5723 149.763 67.7623 148.249 67.3788L90.4679 52.7521C88.2601 52.1932 88.2937 49.0449 90.5129 48.5332L223.118 17.957C224.476 17.6437 225.774 18.6744 225.776 20.0687L225.941 132.868C225.943 134.768 223.675 135.754 222.287 134.456L181.426 96.2289C180.609 95.4644 179.344 95.4466 178.506 96.1879Z" fill="black" stroke="black" stroke-width="1.0852" stroke-linejoin="round"/>
<path fill-rule="evenodd" clip-rule="evenodd" d="M231.233 166.802L180.834 119.653C179.913 118.791 178.483 118.781 177.551 119.631L125.791 166.78C124.736 167.741 124.736 169.399 125.791 170.359L177.551 217.509C178.483 218.358 179.913 218.349 180.834 217.487L231.233 170.338C232.256 169.381 232.256 167.759 231.233 166.802ZM216.914 167.42L180.12 132.998C179.447 132.369 178.403 132.362 177.722 132.982L139.935 167.404C139.165 168.105 139.165 169.316 139.935 170.017L177.722 204.438C178.403 205.059 179.447 205.052 180.12 204.422L216.914 170.001C217.66 169.302 217.66 168.118 216.914 167.42Z" fill="black"/>
<path d="M180.834 119.653L181.661 118.769L180.834 119.653ZM231.233 166.802L230.406 167.686L231.233 166.802ZM177.551 119.631L176.736 118.736V118.736L177.551 119.631ZM125.791 166.78L124.976 165.886H124.976L125.791 166.78ZM125.791 170.359L124.976 171.254L125.791 170.359ZM177.551 217.509L178.366 216.614H178.366L177.551 217.509ZM180.834 217.487L180.007 216.603L180.834 217.487ZM231.233 170.338L230.406 169.454V169.454L231.233 170.338ZM180.12 132.998L179.293 133.882V133.882L180.12 132.998ZM216.914 167.42L216.087 168.304V168.304L216.914 167.42ZM177.722 132.982L178.537 133.877V133.877L177.722 132.982ZM139.935 167.404L140.75 168.299L140.75 168.299L139.935 167.404ZM139.935 170.017L139.12 170.911L139.935 170.017ZM177.722 204.438L178.537 203.543H178.537L177.722 204.438ZM180.12 204.422L179.293 203.538L180.12 204.422ZM216.914 170.001L216.087 169.117V169.117L216.914 170.001ZM180.007 120.537L230.406 167.686L232.06 165.918L181.661 118.769L180.007 120.537ZM178.366 120.526C178.832 120.101 179.547 120.106 180.007 120.537L181.661 118.769C180.279 117.476 178.135 117.462 176.736 118.736L178.366 120.526ZM126.606 167.675L178.366 120.526L176.736 118.736L124.976 165.886L126.606 167.675ZM126.606 169.465C126.079 168.985 126.079 168.155 126.606 167.675L124.976 165.886C123.394 167.326 123.394 169.814 124.976 171.254L126.606 169.465ZM178.366 216.614L126.606 169.465L124.976 171.254L176.736 218.403L178.366 216.614ZM180.007 216.603C179.547 217.034 178.832 217.039 178.366 216.614L176.736 218.403C178.135 219.678 180.279 219.664 181.661 218.371L180.007 216.603ZM230.406 169.454L180.007 216.603L181.661 218.371L232.06 171.221L230.406 169.454ZM230.406 167.686C230.918 168.164 230.918 168.975 230.406 169.454L232.06 171.221C233.594 169.786 233.594 167.353 232.06 165.918L230.406 167.686ZM179.293 133.882L216.087 168.304L217.74 166.536L180.947 132.114L179.293 133.882ZM178.537 133.877C178.752 133.681 179.081 133.684 179.293 133.882L180.947 132.114C179.813 131.054 178.055 131.042 176.907 132.088L178.537 133.877ZM140.75 168.299L178.537 133.877L176.907 132.088L139.12 166.509L140.75 168.299ZM140.75 169.122C140.507 168.901 140.507 168.519 140.75 168.299L139.12 166.509C137.823 167.69 137.823 169.73 139.12 170.911L140.75 169.122ZM178.537 203.543L140.75 169.122L139.12 170.911L176.907 205.333L178.537 203.543ZM179.293 203.538C179.081 203.737 178.752 203.739 178.537 203.543L176.907 205.333C178.055 206.378 179.813 206.367 180.947 205.306L179.293 203.538ZM216.087 169.117L179.293 203.538L180.947 205.306L217.74 170.885L216.087 169.117ZM216.087 168.304C216.322 168.524 216.322 168.897 216.087 169.117L217.74 170.885C218.998 169.708 218.998 167.713 217.74 166.536L216.087 168.304Z" fill="black"/>
<path d="M179.367 148.103L200.09 167.49C200.511 167.883 200.511 168.55 200.09 168.944L179.367 188.33C178.988 188.685 178.401 188.689 178.017 188.339L156.734 168.953C156.301 168.558 156.301 167.876 156.734 167.481L178.017 148.094C178.401 147.745 178.988 147.749 179.367 148.103Z" fill="black" stroke="black" stroke-width="0.995298" stroke-linejoin="round"/>
</g>
<defs>
<clipPath id="clip0_64_192">
<rect width="250" height="250" fill="white"/>
</clipPath>
</defs>
</svg>
