<svg width="250" height="250" viewBox="0 0 250 250" fill="none" xmlns="http://www.w3.org/2000/svg">
<path d="M188.321 25.8679V58.7453H153.509L188.321 25.8679Z" fill="black" stroke="black" stroke-width="1.93396" stroke-linejoin="round"/>
<path d="M62.3917 222.165V189.288H97.203L62.3917 222.165Z" fill="black" stroke="black" stroke-width="1.93396" stroke-linejoin="round"/>
<path fill-rule="evenodd" clip-rule="evenodd" d="M124.5 227C181.109 227 227 181.109 227 124.5C227 111.504 224.581 99.0736 220.17 87.6333C213.988 75.4795 199.953 79.1579 201.042 90.7702C205.304 100.84 207.66 111.911 207.66 123.533C207.66 169.995 169.995 207.66 123.533 207.66C103.683 207.66 85.4394 200.786 71.052 189.288H62.3916V206.047C79.6257 219.193 101.151 227 124.5 227ZM30.0724 164.439C36.7974 174.263 48.8255 169.848 46.8853 158.261C42.081 147.674 39.4056 135.916 39.4056 123.533C39.4056 77.0708 77.0708 39.4057 123.533 39.4057C143.933 39.4057 162.637 46.6667 177.202 58.7453H188.321V44.2881C170.81 30.3372 148.629 22 124.5 22C67.8908 22 22 67.8908 22 124.5C22 138.668 24.8746 152.165 30.0724 164.439Z" fill="black"/>
<path d="M94.2707 178.299L68.4151 149.532L77.0454 141.775L102.901 170.543L94.2707 178.299Z" fill="black" stroke="black" stroke-width="1.93396" stroke-linejoin="round"/>
<path d="M111.531 162.786L85.6757 134.018L136.019 88.7712C163.348 64.2083 189.204 92.9759 161.875 117.539L111.531 162.786Z" fill="black" stroke="black" stroke-width="1.93396" stroke-linejoin="round"/>
</svg>
