<svg width="250" height="250" viewBox="0 0 250 250" fill="none" xmlns="http://www.w3.org/2000/svg">
<path d="M61.3736 215.186H33.6984V197.394H8L25.7912 160.824V71.8677H70.2691V160.824L88.0603 197.394H61.3736V215.186Z" fill="black"/>
<path d="M70.2691 62.9722H25.7912V49.1346C25.7912 7.62181 70.2691 7.6218 70.2691 49.1346V62.9722Z" fill="black"/>
<path d="M61.3736 215.186H33.6984V197.394H8L25.7912 160.824V71.8677H70.2691V160.824L88.0603 197.394H61.3736V215.186Z" stroke="black" stroke-width="1.9768" stroke-linejoin="round"/>
<path d="M70.2691 62.9722H25.7912V49.1346C25.7912 7.62181 70.2691 7.6218 70.2691 49.1346V62.9722Z" stroke="black" stroke-width="1.9768" stroke-linejoin="round"/>
<path d="M150.329 71.8677V104.485H194.807V71.8677H150.329Z" fill="black"/>
<path d="M194.807 62.9722H150.329V49.1346C150.329 7.62181 194.807 7.6218 194.807 49.1346V62.9722Z" fill="black"/>
<path d="M150.329 71.8677V104.485H194.807V71.8677H150.329Z" stroke="black" stroke-width="1.9768" stroke-linejoin="round"/>
<path d="M194.807 62.9722H150.329V49.1346C150.329 7.62181 194.807 7.6218 194.807 49.1346V62.9722Z" stroke="black" stroke-width="1.9768" stroke-linejoin="round"/>
<path fill-rule="evenodd" clip-rule="evenodd" d="M87.0719 62.9722H131.55V49.1346C131.55 7.6218 87.0719 7.62181 87.0719 49.1346V62.9722ZM94.9791 215.186H122.654V208.062C112.84 197.481 106.84 183.312 106.84 167.742C106.84 147.9 116.585 130.334 131.55 119.568V71.8677H87.0719V160.824L69.2807 197.394H94.9791V215.186Z" fill="black"/>
<path d="M131.55 62.9722V63.9606C132.096 63.9606 132.538 63.518 132.538 62.9722H131.55ZM87.0719 62.9722H86.0835C86.0835 63.518 86.526 63.9606 87.0719 63.9606V62.9722ZM122.654 215.186V216.174C123.2 216.174 123.643 215.732 123.643 215.186H122.654ZM94.9791 215.186H93.9907C93.9907 215.732 94.4332 216.174 94.9791 216.174V215.186ZM122.654 208.062H123.643C123.643 207.812 123.548 207.572 123.379 207.39L122.654 208.062ZM131.55 119.568L132.127 120.371C132.385 120.185 132.538 119.886 132.538 119.568H131.55ZM131.55 71.8677H132.538C132.538 71.3219 132.096 70.8793 131.55 70.8793V71.8677ZM87.0719 71.8677V70.8793C86.526 70.8793 86.0835 71.3219 86.0835 71.8677H87.0719ZM87.0719 160.824L87.9607 161.256C88.0263 161.121 88.0603 160.973 88.0603 160.824H87.0719ZM69.2807 197.394L68.3919 196.962C68.2429 197.268 68.2621 197.63 68.4428 197.919C68.6234 198.207 68.9401 198.383 69.2807 198.383V197.394ZM94.9791 197.394H95.9675C95.9675 196.849 95.525 196.406 94.9791 196.406V197.394ZM131.55 61.9838H87.0719V63.9606H131.55V61.9838ZM130.561 49.1346V62.9722H132.538V49.1346H130.561ZM88.0603 49.1346C88.0603 28.7113 98.9281 18.9884 109.311 18.9884C119.694 18.9884 130.561 28.7113 130.561 49.1346H132.538C132.538 28.0451 121.167 17.0116 109.311 17.0116C97.4547 17.0116 86.0835 28.0451 86.0835 49.1346H88.0603ZM88.0603 62.9722V49.1346H86.0835V62.9722H88.0603ZM122.654 214.197H94.9791V216.174H122.654V214.197ZM121.666 208.062V215.186H123.643V208.062H121.666ZM123.379 207.39C113.728 196.984 107.828 183.053 107.828 167.742H105.852C105.852 183.571 111.953 197.977 121.93 208.734L123.379 207.39ZM107.828 167.742C107.828 148.232 117.409 130.958 132.127 120.371L130.973 118.766C115.761 129.709 105.852 147.569 105.852 167.742H107.828ZM130.561 71.8677V119.568H132.538V71.8677H130.561ZM87.0719 72.8561H131.55V70.8793H87.0719V72.8561ZM88.0603 160.824V71.8677H86.0835V160.824H88.0603ZM70.1695 197.827L87.9607 161.256L86.1831 160.391L68.3919 196.962L70.1695 197.827ZM94.9791 196.406H69.2807V198.383H94.9791V196.406ZM95.9675 215.186V197.394H93.9907V215.186H95.9675Z" fill="black"/>
<path fill-rule="evenodd" clip-rule="evenodd" d="M194.807 113.788V179.603H123.177C127.043 208.618 151.887 231 181.958 231C214.711 231 241.262 204.449 241.262 171.696C241.262 143.356 221.383 119.658 194.807 113.788Z" fill="black"/>
</svg>
