<svg width="250" height="250" viewBox="0 0 250 250" fill="none" xmlns="http://www.w3.org/2000/svg">
<path fill-rule="evenodd" clip-rule="evenodd" d="M125 227C181.333 227 227 181.333 227 125C227 68.667 181.333 23 125 23C68.667 23 23 68.667 23 125C23 181.333 68.667 227 125 227ZM124.038 207.755C170.273 207.755 207.755 170.273 207.755 124.038C207.755 77.8021 170.273 40.3207 124.038 40.3207C77.8021 40.3207 40.3207 77.8021 40.3207 124.038C40.3207 170.273 77.8021 207.755 124.038 207.755Z" fill="black"/>
<path d="M127 59H119C116.239 59 114 61.2386 114 64V137.5C114 140.261 116.239 142.5 119 142.5H172.5C175.261 142.5 177.5 140.261 177.5 137.5V130C177.5 127.239 175.261 125 172.5 125H137C134.239 125 132 122.761 132 120V64C132 61.2386 129.761 59 127 59Z" fill="black" stroke="black" stroke-linejoin="round"/>
</svg>
