<svg width="250" height="250" viewBox="0 0 250 250" fill="none" xmlns="http://www.w3.org/2000/svg">
<path d="M144.309 228.66H115.304V210.014H88.3712L107.017 171.686V78.456H153.632V171.686L172.278 210.014H144.309V228.66Z" fill="black"/>
<path d="M153.632 69.133H107.017V54.6305C107.017 11.1232 153.632 11.1232 153.632 54.6305V69.133Z" fill="black"/>
<path d="M144.309 228.66H115.304V210.014H88.3712L107.017 171.686V78.456H153.632V171.686L172.278 210.014H144.309V228.66Z" stroke="black" stroke-width="2.07178" stroke-linejoin="round"/>
<path d="M153.632 69.133H107.017V54.6305C107.017 11.1232 153.632 11.1232 153.632 54.6305V69.133Z" stroke="black" stroke-width="2.07178" stroke-linejoin="round"/>
<path d="M207.031 228.66H178.026V210.014H151.093L169.739 171.686V78.456H216.354V171.686L235 210.014H207.031V228.66Z" fill="black"/>
<path d="M216.354 69.133H169.739V54.6305C169.739 11.1232 216.354 11.1232 216.354 54.6305V69.133Z" fill="black"/>
<path d="M207.031 228.66H178.026V210.014H151.093L169.739 171.686V78.456H216.354V171.686L235 210.014H207.031V228.66Z" stroke="black" stroke-width="2.07178" stroke-linejoin="round"/>
<path d="M216.354 69.133H169.739V54.6305C169.739 11.1232 216.354 11.1232 216.354 54.6305V69.133Z" stroke="black" stroke-width="2.07178" stroke-linejoin="round"/>
<path d="M94.4021 94.3712V78.6908C94.4021 76.0261 92.242 73.866 89.5774 73.866H20.8247C18.1601 73.866 16 76.0261 16 78.6908V94.3712C16 97.0358 18.1601 99.1959 20.8247 99.1959H89.5774C92.242 99.1959 94.4021 97.0358 94.4021 94.3712Z" fill="black" stroke="black" stroke-width="2.41237" stroke-linejoin="round"/>
<path d="M95.6083 141.412V125.732C95.6083 123.067 93.4482 120.907 90.7836 120.907H32.8866C30.222 120.907 28.0619 123.067 28.0619 125.732V141.412C28.0619 144.077 30.222 146.237 32.8866 146.237H90.7836C93.4482 146.237 95.6083 144.077 95.6083 141.412Z" fill="black" stroke="black" stroke-width="2.41237" stroke-linejoin="round"/>
<path d="M42.5363 169.155V184.835C42.5363 187.5 44.6964 189.66 47.361 189.66H85.5714C87.3028 189.66 88.9015 188.732 89.7605 187.229L94.9728 178.107C95.3893 177.378 95.6085 176.553 95.6085 175.714V169.155C95.6085 166.49 93.4484 164.33 90.7837 164.33H47.361C44.6964 164.33 42.5363 166.49 42.5363 169.155Z" fill="black" stroke="black" stroke-width="2.41237" stroke-linejoin="round"/>
</svg>
