<svg width="250" height="250" viewBox="0 0 250 250" fill="none" xmlns="http://www.w3.org/2000/svg">
<path d="M197.008 33.099V65.816H162.366L197.008 33.099Z" fill="black" stroke="black" stroke-width="1.92453" stroke-linejoin="round"/>
<path fill-rule="evenodd" clip-rule="evenodd" d="M227 125C227 181.333 181.333 227 125 227C68.667 227 23 181.333 23 125C23 68.667 68.667 23 125 23C149.011 23 171.084 31.2965 188.509 45.1793V59.566H177.445C162.951 47.5464 144.338 40.3207 124.038 40.3207C77.8021 40.3207 40.3207 77.8021 40.3207 124.038C40.3207 170.273 77.8021 207.755 124.038 207.755C170.273 207.755 207.755 170.273 207.755 124.038C207.755 121.468 207.639 118.926 207.412 116.416H226.644C226.88 119.246 227 122.109 227 125Z" fill="black"/>
<path d="M220.501 117.499H190.652C188.21 117.499 186.23 119.479 186.23 121.921V131.87C186.23 134.312 188.21 136.292 190.652 136.292H220.501C222.943 136.292 224.923 134.312 224.923 131.87V121.921C224.923 119.479 222.943 117.499 220.501 117.499Z" fill="black" stroke="black" stroke-width="2.21099" stroke-linejoin="round"/>
<path d="M61.3098 117.499H31.4615C29.0193 117.499 27.0396 119.479 27.0396 121.921V131.87C27.0396 134.312 29.0193 136.292 31.4615 136.292H61.3098C63.752 136.292 65.7318 134.312 65.7318 131.87V121.921C65.7318 119.479 63.752 117.499 61.3098 117.499Z" fill="black" stroke="black" stroke-width="2.21099" stroke-linejoin="round"/>
<path d="M134.483 63.3297V33.4814C134.483 31.0392 132.503 29.0594 130.061 29.0594H120.112C117.67 29.0594 115.69 31.0392 115.69 33.4814V63.3297C115.69 65.7719 117.67 67.7517 120.112 67.7517H130.061C132.503 67.7517 134.483 65.7719 134.483 63.3297Z" fill="black" stroke="black" stroke-width="2.21099" stroke-linejoin="round"/>
<path d="M134.483 220.31V190.461C134.483 188.019 132.503 186.039 130.061 186.039H120.112C117.67 186.039 115.69 188.019 115.69 190.461V220.31C115.69 222.752 117.67 224.732 120.112 224.732H130.061C132.503 224.732 134.483 222.752 134.483 220.31Z" fill="black" stroke="black" stroke-width="2.21099" stroke-linejoin="round"/>
<path d="M125.02 159.029H97.6906C94.8812 159.029 93.0109 156.126 94.1722 153.568L121.501 93.3646C122.873 90.3422 127.166 90.3422 128.538 93.3646L155.868 153.568C157.029 156.126 155.158 159.029 152.349 159.029H125.02Z" fill="black" stroke="black" stroke-width="1.93198" stroke-linejoin="round"/>
</svg>
