<svg width="250" height="250" viewBox="0 0 250 250" fill="none" xmlns="http://www.w3.org/2000/svg">
<path d="M188.321 25.8679V58.7453H153.509L188.321 25.8679Z" fill="black" stroke="black" stroke-width="1.93396" stroke-linejoin="round"/>
<path d="M62.3918 222.165V189.288H97.2031L62.3918 222.165Z" fill="black" stroke="black" stroke-width="1.93396" stroke-linejoin="round"/>
<path fill-rule="evenodd" clip-rule="evenodd" d="M124.5 227C181.109 227 227 181.109 227 124.5C227 111.504 224.581 99.0736 220.17 87.6333C213.988 75.4795 199.953 79.1579 201.042 90.7702C205.304 100.84 207.66 111.911 207.66 123.533C207.66 169.995 169.995 207.66 123.533 207.66C103.683 207.66 85.4394 200.786 71.052 189.288H62.3916V206.047C79.6257 219.193 101.151 227 124.5 227ZM30.0724 164.439C36.7974 174.263 48.8255 169.848 46.8853 158.261C42.081 147.674 39.4056 135.916 39.4056 123.533C39.4056 77.0708 77.0708 39.4057 123.533 39.4057C143.933 39.4057 162.637 46.6667 177.202 58.7453H188.321V44.2881C170.81 30.3372 148.629 22 124.5 22C67.8908 22 22 67.8908 22 124.5C22 138.668 24.8746 152.165 30.0724 164.439Z" fill="black"/>
<path d="M98.7781 181.288L75.1131 164.526L94.7651 136.781L118.43 153.543L98.7781 181.288Z" fill="black" stroke="black" stroke-width="1.93396" stroke-linejoin="round"/>
<path fill-rule="evenodd" clip-rule="evenodd" d="M139.992 67.7543C131.128 69.6813 122.148 75.6298 115.658 84.7932C104.006 101.243 104.791 121.824 117.41 130.763C130.029 139.701 149.704 133.611 161.356 117.161C167.472 108.526 170.162 98.7513 169.511 90.1207L170.466 89.8811C170.581 89.8523 170.692 89.8142 170.798 89.7678C179.058 104.872 178.573 123.995 167.952 138.99C153.109 159.947 124.086 164.902 103.13 150.058C82.1728 135.215 77.2172 106.192 92.061 85.2357C103.373 69.2652 122.919 62.5874 140.854 66.883C140.493 67.0809 140.188 67.3817 139.992 67.7543Z" fill="black"/>
</svg>
