<svg width="250" height="250" viewBox="0 0 250 250" fill="none" xmlns="http://www.w3.org/2000/svg">
<path fill-rule="evenodd" clip-rule="evenodd" d="M125 227C181.333 227 227 181.333 227 125C227 68.667 181.333 23 125 23C68.667 23 23 68.667 23 125C23 181.333 68.667 227 125 227ZM125 214.446C174.4 214.446 214.446 174.4 214.446 125C214.446 75.6003 174.4 35.5538 125 35.5538C75.6003 35.5538 35.5539 75.6003 35.5539 125C35.5539 174.4 75.6003 214.446 125 214.446Z" fill="black"/>
<path fill-rule="evenodd" clip-rule="evenodd" d="M125 187.769C159.666 187.769 187.769 159.666 187.769 125C187.769 90.3335 159.666 62.2308 125 62.2308C90.3335 62.2308 62.2307 90.3335 62.2307 125C62.2307 159.666 90.3335 187.769 125 187.769ZM124.215 175.215C152.382 175.215 175.215 152.382 175.215 124.215C175.215 96.0489 152.382 73.2154 124.215 73.2154C96.0489 73.2154 73.2154 96.0489 73.2154 124.215C73.2154 152.382 96.0489 175.215 124.215 175.215Z" fill="black"/>
<circle cx="125" cy="125" r="17.2615" fill="black"/>
<path d="M191.692 118.723H170.508C168.774 118.723 167.369 120.128 167.369 121.862V128.923C167.369 130.656 168.774 132.062 170.508 132.062H191.692C193.426 132.062 194.831 130.656 194.831 128.923V121.862C194.831 120.128 193.426 118.723 191.692 118.723Z" fill="black" stroke="black" stroke-width="1.56923" stroke-linejoin="round"/>
<path d="M78.7077 118.723H57.5231C55.7898 118.723 54.3846 120.128 54.3846 121.862V128.923C54.3846 130.656 55.7898 132.062 57.5231 132.062H78.7077C80.441 132.062 81.8462 130.656 81.8462 128.923V121.862C81.8462 120.128 80.441 118.723 78.7077 118.723Z" fill="black" stroke="black" stroke-width="1.56923" stroke-linejoin="round"/>
<path d="M132.062 80.2769V59.0923C132.062 57.359 130.656 55.9538 128.923 55.9538H121.862C120.128 55.9538 118.723 57.359 118.723 59.0923V80.2769C118.723 82.0103 120.128 83.4154 121.862 83.4154H128.923C130.656 83.4154 132.062 82.0103 132.062 80.2769Z" fill="black" stroke="black" stroke-width="1.56923" stroke-linejoin="round"/>
<path d="M132.062 191.692V170.508C132.062 168.774 130.656 167.369 128.923 167.369H121.862C120.128 167.369 118.723 168.774 118.723 170.508V191.692C118.723 193.426 120.128 194.831 121.862 194.831H128.923C130.656 194.831 132.062 193.426 132.062 191.692Z" fill="black" stroke="black" stroke-width="1.56923" stroke-linejoin="round"/>
</svg>
