<svg width="667" height="211" viewBox="0 0 667 211" fill="none" xmlns="http://www.w3.org/2000/svg">
<g clip-path="url(#clip0_56_23)">
<path d="M113.581 110.004C113.581 111.144 113.378 112.202 112.971 113.178C112.564 114.155 111.994 115.009 111.262 115.742C110.57 116.433 109.736 116.983 108.759 117.39C107.783 117.797 106.725 118 105.585 118H48.3345C46.8696 118 45.2827 117.837 43.5737 117.512C41.9054 117.146 40.2371 116.596 38.5688 115.864C36.9412 115.131 35.3747 114.195 33.8691 113.056C32.3636 111.876 31.0208 110.472 29.8408 108.845C28.7015 107.176 27.786 105.264 27.0942 103.107C26.4025 100.91 26.0566 98.4484 26.0566 95.7222V52.7534C26.0566 51.2886 26.2194 49.722 26.5449 48.0537C26.9111 46.3447 27.4604 44.6764 28.1929 43.0488C28.9253 41.3805 29.8815 39.7936 31.0615 38.2881C32.2415 36.7826 33.6453 35.4601 35.2729 34.3208C36.9412 33.1408 38.8537 32.2049 41.0103 31.5132C43.1668 30.8215 45.6082 30.4756 48.3345 30.4756H112.849V46.3447H48.3345C46.2593 46.3447 44.6724 46.894 43.5737 47.9927C42.4751 49.0913 41.9258 50.7189 41.9258 52.8755V95.7222C41.9258 97.7567 42.4751 99.3436 43.5737 100.483C44.7131 101.582 46.3 102.131 48.3345 102.131H97.7119V82.2334H55.4756V66.2422H105.585C106.725 66.2422 107.783 66.466 108.759 66.9136C109.736 67.3205 110.57 67.8901 111.262 68.6226C111.994 69.355 112.564 70.2095 112.971 71.186C113.378 72.1219 113.581 73.1392 113.581 74.2378V110.004ZM217.585 59.8945C217.585 63.516 217.137 66.7508 216.242 69.5991C215.347 72.4474 214.126 74.9702 212.58 77.1675C211.075 79.3241 209.325 81.1755 207.331 82.7217C205.337 84.2679 203.242 85.5496 201.044 86.5669C198.888 87.5435 196.691 88.2555 194.453 88.7031C192.255 89.1507 190.18 89.3745 188.227 89.3745L221.369 118H196.833L163.752 89.3745H152.338V73.5054H188.227C190.221 73.3426 192.032 72.9357 193.659 72.2847C195.327 71.5929 196.752 70.6774 197.932 69.5381C199.152 68.3988 200.088 67.0356 200.739 65.4487C201.39 63.8211 201.716 61.9697 201.716 59.8945V49.8848C201.716 48.9896 201.594 48.3182 201.35 47.8706C201.146 47.3823 200.861 47.0365 200.495 46.833C200.17 46.5889 199.803 46.4465 199.396 46.4058C199.03 46.3651 198.684 46.3447 198.359 46.3447H145.991V118H130.122V38.4712C130.122 37.3726 130.325 36.335 130.732 35.3584C131.139 34.3818 131.688 33.5273 132.38 32.7949C133.112 32.0625 133.967 31.4928 134.943 31.0859C135.92 30.679 136.978 30.4756 138.117 30.4756H198.359C201.899 30.4756 204.89 31.1266 207.331 32.4287C209.772 33.6901 211.746 35.2974 213.251 37.2505C214.798 39.1629 215.896 41.2381 216.547 43.4761C217.239 45.714 217.585 47.8096 217.585 49.7627V59.8945ZM319.392 118H303.522V96.5156H247.736V118H231.867V74.2378C231.867 67.8494 232.966 61.9697 235.163 56.5986C237.36 51.2275 240.412 46.6092 244.318 42.7437C248.225 38.8781 252.843 35.867 258.173 33.7104C263.504 31.5539 269.322 30.4756 275.629 30.4756H311.396C312.495 30.4756 313.532 30.679 314.509 31.0859C315.485 31.4928 316.34 32.0625 317.072 32.7949C317.805 33.5273 318.374 34.3818 318.781 35.3584C319.188 36.335 319.392 37.3726 319.392 38.4712V118ZM247.736 80.6465H303.522V46.3447H275.629C275.141 46.3447 274.104 46.4261 272.517 46.5889C270.97 46.7109 269.16 47.0568 267.084 47.6265C265.05 48.1961 262.893 49.071 260.615 50.251C258.336 51.431 256.241 53.0586 254.328 55.1338C252.416 57.209 250.829 59.8132 249.567 62.9463C248.347 66.0387 247.736 69.8026 247.736 74.2378V80.6465ZM425.471 30.4756L384.028 114.887C383.377 116.189 382.4 117.227 381.098 118C379.837 118.814 378.433 119.221 376.887 119.221C375.381 119.221 373.977 118.814 372.675 118C371.414 117.227 370.437 116.189 369.746 114.887L328.364 30.4756H346.125L376.887 93.5249L407.771 30.4756H425.471ZM450.434 118H434.565V30.4756H450.434V118ZM548.09 46.3447H513.117V118H497.248V46.3447H462.214V30.4756H548.09V46.3447ZM643.183 59.7725C643.183 63.3939 642.715 66.6287 641.779 69.4771C640.884 72.3254 639.684 74.8481 638.178 77.0454C636.673 79.202 634.903 81.0534 632.868 82.5996C630.874 84.1458 628.799 85.4276 626.643 86.4448C624.486 87.4214 622.289 88.1335 620.051 88.5811C617.854 89.0286 615.778 89.2524 613.825 89.2524H607.417V118H591.425V89.2524H585.078C583.125 89.2524 581.029 89.0286 578.791 88.5811C576.594 88.1335 574.396 87.4214 572.199 86.4448C570.043 85.4276 567.967 84.1458 565.974 82.5996C563.98 81.0534 562.21 79.202 560.664 77.0454C559.158 74.8481 557.937 72.3254 557.001 69.4771C556.106 66.5881 555.659 63.3532 555.659 59.7725V30.4756H571.528V59.7725C571.528 61.8477 571.853 63.7194 572.504 65.3877C573.155 67.0153 574.071 68.4191 575.251 69.5991C576.431 70.7791 577.855 71.6947 579.523 72.3457C581.232 72.9561 583.125 73.2612 585.2 73.2612H613.825C615.331 73.0171 616.877 72.7119 618.464 72.3457C620.051 71.9388 621.495 71.2674 622.797 70.3315C624.099 69.3957 625.178 68.0936 626.032 66.4253C626.887 64.757 627.314 62.5394 627.314 59.7725V30.4756H643.183V59.7725Z" fill="black"/>
<path d="M170.649 127.761H182.954L210.639 185H198.444L193.867 175.369H160.432L156 185H143.769L170.649 127.761ZM189.289 165.811L176.911 139.81L164.863 165.811H189.289ZM222.211 167.971C224.287 169.143 226.386 170.205 228.51 171.157C230.659 172.085 232.88 172.878 235.175 173.538C237.47 174.172 239.875 174.661 242.39 175.002C244.929 175.344 247.626 175.515 250.483 175.515C253.925 175.515 256.855 175.295 259.272 174.856C261.689 174.392 263.654 173.77 265.168 172.988C266.706 172.183 267.817 171.23 268.5 170.132C269.208 169.033 269.562 167.837 269.562 166.543C269.562 164.468 268.696 162.832 266.962 161.636C265.229 160.415 262.556 159.805 258.942 159.805C257.355 159.805 255.683 159.915 253.925 160.134C252.167 160.33 250.385 160.549 248.579 160.793C246.796 161.038 245.026 161.27 243.269 161.489C241.535 161.685 239.899 161.782 238.361 161.782C235.798 161.782 233.332 161.453 230.964 160.793C228.62 160.134 226.533 159.146 224.702 157.827C222.895 156.509 221.455 154.861 220.38 152.883C219.306 150.906 218.769 148.599 218.769 145.962C218.769 144.399 218.977 142.849 219.392 141.311C219.831 139.773 220.515 138.308 221.442 136.917C222.395 135.5 223.615 134.194 225.104 132.998C226.594 131.777 228.388 130.728 230.488 129.849C232.612 128.97 235.053 128.286 237.812 127.798C240.595 127.285 243.757 127.029 247.297 127.029C249.86 127.029 252.436 127.175 255.024 127.468C257.612 127.737 260.126 128.127 262.568 128.64C265.034 129.153 267.402 129.775 269.672 130.508C271.943 131.216 274.055 132.009 276.008 132.888L270.917 142.263C269.306 141.555 267.573 140.908 265.717 140.322C263.862 139.712 261.921 139.187 259.895 138.748C257.868 138.308 255.769 137.966 253.596 137.722C251.447 137.454 249.25 137.319 247.004 137.319C243.806 137.319 241.169 137.551 239.094 138.015C237.043 138.479 235.407 139.077 234.187 139.81C232.966 140.518 232.111 141.323 231.623 142.227C231.159 143.105 230.927 143.984 230.927 144.863C230.927 146.572 231.696 147.976 233.234 149.075C234.772 150.149 237.116 150.686 240.266 150.686C241.535 150.686 242.988 150.601 244.624 150.43C246.284 150.234 248.017 150.027 249.824 149.807C251.655 149.587 253.51 149.392 255.39 149.221C257.294 149.026 259.138 148.928 260.92 148.928C264.289 148.928 267.268 149.307 269.855 150.063C272.468 150.82 274.653 151.907 276.411 153.323C278.168 154.714 279.499 156.411 280.402 158.413C281.306 160.391 281.757 162.612 281.757 165.078C281.757 168.374 280.988 171.316 279.45 173.904C277.937 176.467 275.764 178.64 272.932 180.422C270.124 182.18 266.73 183.523 262.751 184.451C258.771 185.354 254.34 185.806 249.458 185.806C246.235 185.806 243.085 185.598 240.009 185.183C236.933 184.792 233.979 184.231 231.147 183.499C228.339 182.742 225.654 181.851 223.09 180.825C220.551 179.775 218.195 178.628 216.022 177.383L222.211 167.971ZM297.211 167.971C299.287 169.143 301.386 170.205 303.51 171.157C305.659 172.085 307.88 172.878 310.175 173.538C312.47 174.172 314.875 174.661 317.39 175.002C319.929 175.344 322.626 175.515 325.483 175.515C328.925 175.515 331.855 175.295 334.272 174.856C336.689 174.392 338.654 173.77 340.168 172.988C341.706 172.183 342.817 171.23 343.5 170.132C344.208 169.033 344.562 167.837 344.562 166.543C344.562 164.468 343.696 162.832 341.962 161.636C340.229 160.415 337.556 159.805 333.942 159.805C332.355 159.805 330.683 159.915 328.925 160.134C327.167 160.33 325.385 160.549 323.579 160.793C321.796 161.038 320.026 161.27 318.269 161.489C316.535 161.685 314.899 161.782 313.361 161.782C310.798 161.782 308.332 161.453 305.964 160.793C303.62 160.134 301.533 159.146 299.702 157.827C297.895 156.509 296.455 154.861 295.38 152.883C294.306 150.906 293.769 148.599 293.769 145.962C293.769 144.399 293.977 142.849 294.392 141.311C294.831 139.773 295.515 138.308 296.442 136.917C297.395 135.5 298.615 134.194 300.104 132.998C301.594 131.777 303.388 130.728 305.488 129.849C307.612 128.97 310.053 128.286 312.812 127.798C315.595 127.285 318.757 127.029 322.297 127.029C324.86 127.029 327.436 127.175 330.024 127.468C332.612 127.737 335.126 128.127 337.568 128.64C340.034 129.153 342.402 129.775 344.672 130.508C346.943 131.216 349.055 132.009 351.008 132.888L345.917 142.263C344.306 141.555 342.573 140.908 340.717 140.322C338.862 139.712 336.921 139.187 334.895 138.748C332.868 138.308 330.769 137.966 328.596 137.722C326.447 137.454 324.25 137.319 322.004 137.319C318.806 137.319 316.169 137.551 314.094 138.015C312.043 138.479 310.407 139.077 309.187 139.81C307.966 140.518 307.111 141.323 306.623 142.227C306.159 143.105 305.927 143.984 305.927 144.863C305.927 146.572 306.696 147.976 308.234 149.075C309.772 150.149 312.116 150.686 315.266 150.686C316.535 150.686 317.988 150.601 319.624 150.43C321.284 150.234 323.017 150.027 324.824 149.807C326.655 149.587 328.51 149.392 330.39 149.221C332.294 149.026 334.138 148.928 335.92 148.928C339.289 148.928 342.268 149.307 344.855 150.063C347.468 150.82 349.653 151.907 351.411 153.323C353.168 154.714 354.499 156.411 355.402 158.413C356.306 160.391 356.757 162.612 356.757 165.078C356.757 168.374 355.988 171.316 354.45 173.904C352.937 176.467 350.764 178.64 347.932 180.422C345.124 182.18 341.73 183.523 337.751 184.451C333.771 185.354 329.34 185.806 324.458 185.806C321.235 185.806 318.085 185.598 315.009 185.183C311.933 184.792 308.979 184.231 306.147 183.499C303.339 182.742 300.654 181.851 298.09 180.825C295.551 179.775 293.195 178.628 291.022 177.383L297.211 167.971ZM368.073 127.761H379.755V185H368.073V127.761ZM397.26 167.971C399.335 169.143 401.435 170.205 403.559 171.157C405.708 172.085 407.929 172.878 410.224 173.538C412.519 174.172 414.924 174.661 417.438 175.002C419.978 175.344 422.675 175.515 425.532 175.515C428.974 175.515 431.904 175.295 434.321 174.856C436.738 174.392 438.703 173.77 440.217 172.988C441.755 172.183 442.866 171.23 443.549 170.132C444.257 169.033 444.611 167.837 444.611 166.543C444.611 164.468 443.745 162.832 442.011 161.636C440.278 160.415 437.604 159.805 433.991 159.805C432.404 159.805 430.732 159.915 428.974 160.134C427.216 160.33 425.434 160.549 423.627 160.793C421.845 161.038 420.075 161.27 418.317 161.489C416.584 161.685 414.948 161.782 413.41 161.782C410.847 161.782 408.381 161.453 406.013 160.793C403.669 160.134 401.582 159.146 399.75 157.827C397.944 156.509 396.503 154.861 395.429 152.883C394.355 150.906 393.818 148.599 393.818 145.962C393.818 144.399 394.025 142.849 394.44 141.311C394.88 139.773 395.563 138.308 396.491 136.917C397.443 135.5 398.664 134.194 400.153 132.998C401.643 131.777 403.437 130.728 405.537 129.849C407.661 128.97 410.102 128.286 412.861 127.798C415.644 127.285 418.806 127.029 422.346 127.029C424.909 127.029 427.485 127.175 430.073 127.468C432.661 127.737 435.175 128.127 437.617 128.64C440.083 129.153 442.451 129.775 444.721 130.508C446.992 131.216 449.104 132.009 451.057 132.888L445.966 142.263C444.355 141.555 442.622 140.908 440.766 140.322C438.911 139.712 436.97 139.187 434.943 138.748C432.917 138.308 430.817 137.966 428.645 137.722C426.496 137.454 424.299 137.319 422.053 137.319C418.854 137.319 416.218 137.551 414.143 138.015C412.092 138.479 410.456 139.077 409.235 139.81C408.015 140.518 407.16 141.323 406.672 142.227C406.208 143.105 405.976 143.984 405.976 144.863C405.976 146.572 406.745 147.976 408.283 149.075C409.821 150.149 412.165 150.686 415.314 150.686C416.584 150.686 418.037 150.601 419.672 150.43C421.333 150.234 423.066 150.027 424.873 149.807C426.704 149.587 428.559 149.392 430.439 149.221C432.343 149.026 434.187 148.928 435.969 148.928C439.338 148.928 442.316 149.307 444.904 150.063C447.517 150.82 449.702 151.907 451.459 153.323C453.217 154.714 454.548 156.411 455.451 158.413C456.354 160.391 456.806 162.612 456.806 165.078C456.806 168.374 456.037 171.316 454.499 173.904C452.985 176.467 450.812 178.64 447.98 180.422C445.173 182.18 441.779 183.523 437.8 184.451C433.82 185.354 429.389 185.806 424.506 185.806C421.284 185.806 418.134 185.598 415.058 185.183C411.982 184.792 409.028 184.231 406.196 183.499C403.388 182.742 400.703 181.851 398.139 180.825C395.6 179.775 393.244 178.628 391.071 177.383L397.26 167.971ZM486.835 137.942H465.705V127.761H519.575V137.942H498.444V185H486.835V137.942Z" fill="black"/>
</g>
<defs>
<clipPath id="clip0_56_23">
<rect width="667" height="211" fill="white"/>
</clipPath>
</defs>
</svg>
